<?xml version="1.0" encoding="UTF-8" standalone="no"?>
<!-- Created with Vectornator (http://vectornator.io/) -->

<svg
   height="208.58662mm"
   stroke-miterlimit="10"
   style="clip-rule:evenodd;fill-rule:nonzero;stroke-linecap:round;stroke-linejoin:round"
   version="1.1"
   viewBox="0 0 498.00167 788.35889"
   width="131.76294mm"
   xml:space="preserve"
   id="svg71"
   sodipodi:docname="me-v2b.svg"
   inkscape:version="1.3 (0e150ed, 2023-07-21)"
   inkscape:export-filename="me-v2b.png"
   inkscape:export-xdpi="72"
   inkscape:export-ydpi="72"
   xmlns:inkscape="http://www.inkscape.org/namespaces/inkscape"
   xmlns:sodipodi="http://sodipodi.sourceforge.net/DTD/sodipodi-0.dtd"
   xmlns:xlink="http://www.w3.org/1999/xlink"
   xmlns="http://www.w3.org/2000/svg"
   xmlns:svg="http://www.w3.org/2000/svg"
   xmlns:vectornator="http://vectornator.io"><sodipodi:namedview
   id="namedview71"
   pagecolor="#ffffff"
   bordercolor="#000000"
   borderopacity="0.25"
   inkscape:showpageshadow="2"
   inkscape:pageopacity="0.0"
   inkscape:pagecheckerboard="0"
   inkscape:deskcolor="#d1d1d1"
   inkscape:zoom="0.16365655"
   inkscape:cx="2013.3627"
   inkscape:cy="1933.9281"
   inkscape:window-width="1440"
   inkscape:window-height="872"
   inkscape:window-x="937"
   inkscape:window-y="1468"
   inkscape:window-maximized="0"
   inkscape:current-layer="svg71" />&#10;<defs
   id="defs1"><clipPath
     clipPathUnits="userSpaceOnUse"
     id="clipPath3"><use
       x="0"
       y="0"
       xlink:href="#g2"
       id="use3" /></clipPath></defs>&#10;&#10;&#10;&#10;&#10;&#10;&#10;<g
   inkscape:groupmode="layer"
   id="layer1"
   inkscape:label="elipse background"
   style="clip-rule:evenodd;display:inline;fill-rule:nonzero;stroke-linecap:round;stroke-linejoin:round"
   transform="translate(-1017.7534,-1532.083)"><ellipse
     style="display:inline;fill:#ededed;fill-opacity:1;stroke-width:5.60138;stroke-dasharray:none"
     id="path1"
     cx="1266.7543"
     cy="1844.0923"
     rx="249.00082"
     ry="250.34967"
     inkscape:label="path1" /><g
     id="g3"
     clip-path="url(#clipPath3)"><g
       inkscape:label="Clip"
       id="g2"
       style="display:inline"><rect
         style="fill:#fffffb;fill-opacity:1;stroke-width:13.753"
         id="rect1"
         width="498.00168"
         height="386.85336"
         x="1017.7534"
         y="1933.5885"
         ry="0" /></g></g></g><g
   id="g72"
   transform="matrix(0.19069188,0,0,0.17480089,-143.23914,87.115627)"
   inkscape:label="moi"
   style="clip-rule:evenodd;display:inline;fill-rule:nonzero;stroke-linecap:round;stroke-linejoin:round"><g
     id="Visage"
     vectornator:layerName="Visage"
     style="display:inline">&#10;<g
   opacity="1"
   vectornator:layerName="Grouper 2"
   id="g46">&#10;<g
   opacity="1"
   vectornator:layerName="Grouper 1"
   id="g42">&#10;<path
   d="m 1010.57,1268.08 c 0,-568.866 463.15,-1030.023 1034.47,-1030.023 571.32,0 1034.47,461.157 1034.47,1030.023 0,568.87 -463.15,1030.03 -1034.47,1030.03 -571.32,0 -1034.47,-461.16 -1034.47,-1030.03 z"
   fill="#8a8a8a"
   fill-rule="nonzero"
   opacity="1"
   stroke="none"
   vectornator:layerName="Ovale 1"
   id="path37" />&#10;<path
   d="m 1219.32,2119.27 c 0,62.47 -50.24,111.41 -111.42,111.41 -62.47,0 -111.411,-50.23 -111.411,-111.41 0,-11.6 4.511,-30.92 4.511,-30.92 l 108.19,-416.67 108.19,416.67 c 0.65,10.31 1.94,19.97 1.94,30.92 z"
   fill="#de9a7e"
   fill-rule="nonzero"
   opacity="1"
   stroke="none"
   vectornator:layerName="path"
   id="path38" />&#10;<path
   d="m 967.739,1630.48 c 0,-62.47 50.231,-111.42 111.411,-111.42 62.47,0 111.42,50.24 111.42,111.42 0,11.59 -4.51,30.91 -4.51,30.91 l -108.2,416.67 -108.189,-416.67 c -0.645,-10.3 -1.932,-19.96 -1.932,-30.91 z"
   fill="#de9a7e"
   fill-rule="nonzero"
   opacity="1"
   stroke="none"
   vectornator:layerName="path"
   id="path39" />&#10;<path
   d="m 2050,285.062 c -544.85,0 -985.94,441.057 -985.94,985.908 v 410.19 c 6.87,14.55 13.93,28.87 21.38,42.62 l 299.53,533.13 h 1281.09 l 306,-544 c 26.54,-44.24 47.61,-90.9 63.85,-139.19 v -302.75 c 0,-544.851 -441.06,-985.908 -985.91,-985.908 z"
   fill="#de997e"
   fill-rule="nonzero"
   opacity="1"
   stroke="none"
   vectornator:layerName="Courbe 3"
   id="path40" />&#10;<path
   d="m 3028.4,2312.79 c 0,720.48 -441.41,1304.54 -985.91,1304.54 -544.51,0 -985.92,-584.06 -985.92,-1304.54 0,-720.48 441.41,-1304.54 985.92,-1304.54 544.5,0 985.91,584.06 985.91,1304.54 z"
   fill="#de9a7e"
   fill-rule="nonzero"
   opacity="1"
   stroke="none"
   vectornator:layerName="path"
   id="path41" />&#10;<path
   d="m 2047.98,557.478 c -285.26,0 -516.51,-61.004 -516.51,-136.269 0,-75.249 231.25,-136.27 516.51,-136.27 285.26,0 516.51,61.021 516.51,136.27 0,75.265 -231.25,136.269 -516.51,136.269 z"
   fill="#8a8a8a"
   fill-rule="nonzero"
   opacity="1"
   stroke="none"
   vectornator:layerName="path"
   id="path42" />&#10;</g>&#10;<path
   d="m 3146.13,1630.55 c 0,-62.47 -50.23,-111.42 -111.41,-111.42 -62.47,0 -111.41,50.23 -111.41,111.42 0,11.59 4.5,30.91 4.5,30.91 l 108.2,416.67 108.19,-416.67 c 0.64,-10.31 1.93,-19.97 1.93,-30.91 z"
   fill="#de9a7e"
   fill-rule="nonzero"
   opacity="1"
   stroke="none"
   vectornator:layerName="path"
   id="path43" />&#10;<path
   d="m 2876.69,2154.79 c 0,62.47 50.23,111.41 111.41,111.41 62.47,0 111.41,-50.23 111.41,-111.41 0,-11.59 -4.51,-30.91 -4.51,-30.91 l -108.19,-416.68 -108.19,416.68 c -0.65,10.3 -1.93,19.96 -1.93,30.91 z"
   fill="#de9a7e"
   fill-rule="nonzero"
   opacity="1"
   stroke="none"
   vectornator:layerName="path"
   id="path44" />&#10;<path
   d="m 1064.06,1681.16 v 575.75 h 320.91 l -299.53,-533.13 c -7.45,-13.75 -14.51,-28.07 -21.38,-42.62 z"
   fill="#de997e"
   fill-rule="nonzero"
   opacity="1"
   stroke="none"
   vectornator:layerName="Courbe 4"
   id="path45" />&#10;<path
   d="m 3035.91,1519.13 c -16.24,52.16 -37.31,102.55 -63.85,150.31 l -306,587.47 h 369.85 z"
   fill="#de997e"
   fill-rule="nonzero"
   opacity="1"
   stroke="none"
   vectornator:layerName="Courbe 5"
   id="path46" />&#10;</g>&#10;</g><g
     id="Bouc"
     vectornator:layerName="Bouc"
     style="display:inline">&#10;<g
   opacity="1"
   vectornator:layerName="g"
   id="g48">&#10;<path
   d="m 2618.04,3204.79 c -1.49,-37.13 -6.22,-75.25 -13.77,-111.89 -45.71,257.8 -266.66,455.31 -537.3,462.37 -270.3,6 -502.11,-180.66 -559.2,-434.89 -6.4,35.85 -8.81,74.13 -8.74,111.99 6.8,309.59 265.2,555.34 574.38,546.05 308.84,-8.22 550.69,-265.47 544.63,-573.63 z"
   fill="#a97661"
   fill-rule="nonzero"
   opacity="1"
   stroke="none"
   vectornator:layerName="path"
   id="path47" />&#10;<path
   d="m 2095.15,3615.03 c -187.82,0 -340.08,-37.53 -340.08,-83.84 0,-46.3 152.26,-83.85 340.08,-83.85 187.82,0 340.07,37.55 340.07,83.85 0,46.31 -152.25,83.84 -340.07,83.84 z"
   fill="#a97661"
   fill-rule="nonzero"
   opacity="1"
   stroke="none"
   vectornator:layerName="path"
   id="path48" />&#10;</g>&#10;<g
   opacity="1"
   vectornator:layerName="g"
   id="g53">&#10;<path
   d="m 2014.53,2660 c -18.42,60.19 15.68,124.39 75.88,142.81 l 327.49,100.23 c 60.19,18.43 124.39,-15.68 142.81,-75.88 18.43,-60.19 -15.68,-124.39 -75.88,-142.81 l -327.49,-100.23 c -60.19,-18.43 -124.39,15.68 -142.81,75.88 z"
   fill="#a87561"
   fill-opacity="0.99"
   fill-rule="nonzero"
   opacity="1"
   stroke="none"
   vectornator:layerName="path"
   id="path49" />&#10;<path
   d="m 2562.1,2823.3 c -9.38,-41.34 -49.97,-66.18 -90.45,-56.99 -41.34,9.38 -66.18,49.97 -56.99,90.46 1.74,7.67 7.63,19.77 7.63,19.77 l 134.18,259.46 9,-291.96 c -1.12,-6.91 -1.72,-13.5 -3.37,-20.74 z"
   fill="#a87561"
   fill-opacity="0.99"
   fill-rule="nonzero"
   opacity="1"
   stroke="none"
   vectornator:layerName="path"
   id="path50" />&#10;<path
   d="m 2084.62,2659.92 c 18.66,60.13 -15.2,124.45 -75.33,143.11 l -327.09,101.5 c -60.13,18.66 -124.45,-15.2 -143.11,-75.32 -18.66,-60.13 15.2,-124.45 75.32,-143.11 l 327.1,-101.5 c 60.12,-18.66 124.45,15.2 143.11,75.32 z"
   fill="#a87561"
   fill-opacity="0.99"
   fill-rule="nonzero"
   opacity="1"
   stroke="none"
   vectornator:layerName="path"
   id="path51" />&#10;<path
   d="m 1537.68,2825.35 c 9.22,-41.37 49.72,-66.37 90.24,-57.34 41.37,9.22 66.37,49.72 57.33,90.24 -1.71,7.67 -7.55,19.8 -7.55,19.8 l -133.17,259.98 -10.13,-291.92 c 1.09,-6.92 1.67,-13.51 3.28,-20.76 z"
   fill="#a87561"
   fill-opacity="0.99"
   fill-rule="nonzero"
   opacity="1"
   stroke="none"
   vectornator:layerName="path"
   id="path52" />&#10;<path
   d="m 2074.88,2821.88 c -173.05,0.33 -313.39,-33.98 -313.47,-76.64 -0.09,-42.67 140.12,-77.52 313.17,-77.86 173.04,-0.33 313.38,33.98 313.46,76.64 0.09,42.66 -140.12,77.52 -313.16,77.86 z"
   fill="#a87561"
   fill-opacity="0.99"
   fill-rule="nonzero"
   opacity="1"
   stroke="none"
   vectornator:layerName="path"
   id="path53" />&#10;</g>&#10;</g><g
     id="Bouche"
     vectornator:layerName="Bouche"
     style="display:inline;stroke-width:14.4243;stroke-dasharray:none">&#10;<path
   d="m 1744.2106,2990.984 c 213.3136,70.0358 363.6747,69.003 606.9387,1.379"
   fill="none"
   opacity="1"
   stroke="#000000"
   stroke-linecap="square"
   stroke-linejoin="miter"
   stroke-width="8.25335"
   vectornator:layerName="path"
   id="path54"
   style="stroke-width:14.4243;stroke-dasharray:none" />&#10;<path
   d="m 1932.54,3259.36 c 0.17,7.39 0.97,15 2.35,22.32 10,-51.16 54.67,-89.7 108.56,-90.15 53.83,-0.25 99.31,37.72 109.78,88.52 1.4,-7.11 2.02,-14.72 2.14,-22.26 -0.27,-61.64 -50.84,-111.47 -112.41,-110.7 -61.5,0.55 -110.55,50.91 -110.42,112.27 z"
   fill="#4d4d4d"
   fill-opacity="0.17"
   fill-rule="nonzero"
   opacity="1"
   stroke="none"
   vectornator:layerName="path"
   id="path55"
   style="stroke-width:14.4243;stroke-dasharray:none" />&#10;</g><g
     id="Nez"
     vectornator:layerName="Nez"
     style="display:inline;stroke-width:9.4949;stroke-dasharray:none"
     sodipodi:insensitive="true">&#10;<path
   d="m 2085.55,2474.79 c 40.75,-68.46 75.64,-129.79 205.41,-55.04"
   fill="none"
   opacity="1"
   stroke="#4d4d4d"
   stroke-linecap="square"
   stroke-linejoin="miter"
   stroke-width="1.77493"
   vectornator:layerName="path"
   id="path56"
   style="stroke-width:9.4949;stroke-dasharray:none" />&#10;<path
   d="m 2018.91,2474.72 c -40.74,-68.45 -75.63,-129.79 -205.4,-55.04"
   fill="none"
   opacity="1"
   stroke="#4d4d4d"
   stroke-linecap="square"
   stroke-linejoin="miter"
   stroke-width="2.4576"
   vectornator:layerName="path"
   id="path57"
   style="stroke-width:9.4949;stroke-dasharray:none" />&#10;<path
   d="m 2332.76,2288.08 c 43.82,45.01 43.9,123.78 0,167.69"
   fill="none"
   opacity="1"
   stroke="#4d4d4d"
   stroke-linecap="square"
   stroke-linejoin="miter"
   stroke-width="1.77493"
   vectornator:layerName="path"
   id="path58"
   style="stroke-width:9.4949;stroke-dasharray:none" />&#10;<path
   d="m 1771.76,2288.15 c -43.82,45 -43.91,123.78 0,167.69"
   fill="none"
   opacity="1"
   stroke="#4d4d4d"
   stroke-linecap="square"
   stroke-linejoin="miter"
   stroke-width="2.73067"
   vectornator:layerName="path"
   id="path59"
   style="stroke-width:9.4949;stroke-dasharray:none" />&#10;</g><g
     id="Yeux"
     vectornator:layerName="Yeux"
     style="display:inline">&#10;<g
   opacity="1"
   vectornator:layerName="g"
   id="g63">&#10;<path
   d="m 2280.18,1777.69 c 120.77,-120.77 316.44,-120.77 437.21,0 l 52.79,-52.78 c -150.62,-150.62 -395.48,-150.62 -546.1,0 l 54.72,54.72 c 0,-0.55 0.55,-1.11 1.38,-1.94 z"
   fill="#8a8a8a"
   fill-opacity="0.75"
   fill-rule="nonzero"
   opacity="1"
   stroke="none"
   vectornator:layerName="path"
   id="path60" />&#10;<path
   d="m 2506.64,1674.18 c -102.1,0 -193.86,37.68 -263.75,102.7 69.28,62.6 162.26,102.71 263.75,102.71 102.1,0 193.86,-38.29 263.75,-102.71 -69.28,-62.59 -162.87,-102.7 -263.75,-102.7 z"
   fill="#ffffff"
   fill-rule="nonzero"
   opacity="1"
   stroke="none"
   vectornator:layerName="path"
   id="path61" />&#10;<path
   d="m 2609.58,1774.76 c 0,56.72 -45.98,102.7 -102.7,102.7 -56.73,0 -102.71,-45.98 -102.71,-102.7 0,-56.72 45.98,-102.7 102.71,-102.7 56.72,0 102.7,45.98 102.7,102.7 z"
   fill="#593a31"
   fill-rule="nonzero"
   opacity="1"
   stroke="none"
   vectornator:layerName="path"
   id="path62" />&#10;<path
   d="m 2570.96,1739.25 c 7.44,-7.44 7.28,-19.24 0,-26.53 -7.44,-7.43 -19.24,-7.28 -26.53,0 -1.38,1.38 -3.14,4.22 -3.14,4.22 l -36.72,62.48 62.48,-36.72 c 1.3,-1.15 2.61,-2.15 3.91,-3.45 z"
   fill="#ffffff"
   fill-opacity="0.9"
   fill-rule="nonzero"
   opacity="1"
   stroke="none"
   vectornator:layerName="path"
   id="path63" />&#10;</g>&#10;<g
   opacity="1"
   vectornator:layerName="g"
   id="g67">&#10;<path
   d="m 1355.94,1777.76 c 120.77,-120.77 316.44,-120.77 437.22,0 l 52.78,-52.78 c -150.62,-150.63 -395.48,-150.63 -546.1,0 l 54.72,54.72 c 0,-0.55 0.55,-1.11 1.38,-1.94 z"
   fill="#8a8a8a"
   fill-opacity="0.75"
   fill-rule="nonzero"
   opacity="1"
   stroke="none"
   vectornator:layerName="path"
   id="path64" />&#10;<path
   d="m 1582.4,1674.25 c -102.09,0 -193.86,37.68 -263.75,102.7 69.28,62.6 162.26,102.71 263.75,102.71 102.1,0 193.86,-38.29 263.75,-102.71 -69.28,-62.59 -162.87,-102.7 -263.75,-102.7 z"
   fill="#ffffff"
   fill-rule="nonzero"
   opacity="1"
   stroke="none"
   vectornator:layerName="path"
   id="path65" />&#10;<path
   d="m 1685.34,1774.83 c 0,56.72 -45.98,102.7 -102.7,102.7 -56.72,0 -102.71,-45.98 -102.71,-102.7 0,-56.72 45.99,-102.71 102.71,-102.71 56.72,0 102.7,45.99 102.7,102.71 z"
   fill="#593a31"
   fill-rule="nonzero"
   opacity="1"
   stroke="none"
   vectornator:layerName="path"
   id="path66" />&#10;<path
   d="m 1646.72,1739.32 c 7.44,-7.44 7.28,-19.24 0,-26.53 -7.44,-7.43 -19.24,-7.28 -26.53,0 -1.38,1.38 -3.14,4.22 -3.14,4.22 l -36.72,62.48 62.48,-36.72 c 1.3,-1.15 2.61,-2.15 3.91,-3.45 z"
   fill="#ffffff"
   fill-opacity="0.9"
   fill-rule="nonzero"
   opacity="1"
   stroke="none"
   vectornator:layerName="path"
   id="path67" />&#10;</g>&#10;<g
   opacity="1"
   vectornator:layerName="g"
   id="g69">&#10;<path
   d="m 1387.77,1612.47 v -170.04 h 425.34 v 170.04 z"
   fill="#916b5c"
   fill-rule="nonzero"
   opacity="1"
   stroke="none"
   vectornator:layerName="path"
   id="path68" />&#10;<path
   d="m 1170.75,1441.18 h 339.3 l -34.01,170.04 h -271.67 z"
   fill="#916b5c"
   fill-rule="nonzero"
   opacity="1"
   stroke="none"
   vectornator:layerName="path"
   id="path69" />&#10;</g>&#10;<g
   opacity="1"
   vectornator:layerName="g"
   id="g71">&#10;<path
   d="M 2668.65,1612.4 V 1442.36 H 2243.31 V 1612.4 Z"
   fill="#926b5c"
   fill-rule="nonzero"
   opacity="1"
   stroke="none"
   vectornator:layerName="path"
   id="path70" />&#10;<path
   d="m 2885.67,1441.11 h -339.29 l 34.01,170.04 h 271.66 z"
   fill="#926b5c"
   fill-rule="nonzero"
   opacity="1"
   stroke="none"
   vectornator:layerName="path"
   id="path71" />&#10;</g>&#10;</g></g></svg>
