<?xml version="1.0" encoding="UTF-8"?>
<!-- Generated by Pixelmator Pro 3.5.3 -->
<svg width="32" height="32" viewBox="0 0 32 32" xmlns="http://www.w3.org/2000/svg">
    <path id="Trac" fill="#ffffff" stroke="none" d="M 1.92544 1.380161 L 19.632 0.072319 C 21.807041 -0.114243 22.365759 0.01152 23.73344 1.00576 L 29.385601 4.98752 C 30.317759 5.672319 30.628159 5.858879 30.628159 6.604481 L 30.628159 28.442242 C 30.628159 29.810879 30.131201 30.620481 28.391359 30.743999 L 7.82944 31.989441 C 6.52384 32.051201 5.90208 31.864641 5.21824 30.993279 L 1.056 25.580801 C 0.30944 24.584641 -0 23.839041 -0 22.967361 L -0 3.55616 C -0 2.437119 0.49696 1.504 1.92544 1.380161 Z"/>
    <path id="path1" fill="#000000" fill-rule="evenodd" stroke="none" d="M 19.632 0.072639 L 1.92544 1.380482 C 0.49696 1.504 0 2.437439 0 3.55616 L 0 22.967361 C 0 23.83872 0.30944 24.584318 1.056 25.580801 L 5.21824 30.992958 C 5.90208 31.864319 6.52384 32.051201 7.82944 31.98912 L 28.39168 30.744318 C 30.130239 30.620481 30.628479 29.810879 30.628479 28.442562 L 30.628479 6.604799 C 30.628479 5.8976 30.349121 5.69376 29.526722 5.090239 L 23.73344 1.00576 C 22.366079 0.01152 21.807041 -0.114243 19.632 0.072319 Z M 8.2944 6.24736 C 6.61536 6.360319 6.23456 6.38592 5.28096 5.610561 L 2.85664 3.682241 C 2.61024 3.43264 2.73408 3.121279 3.35488 3.059198 L 20.37664 1.815359 C 21.80608 1.690559 22.5504 2.188799 23.109442 2.623999 L 26.028799 4.739199 C 26.153601 4.80224 26.463999 5.1744 26.090559 5.1744 L 8.512 6.232639 L 8.2944 6.247681 Z M 6.33696 28.256001 L 6.33696 9.717442 C 6.33696 8.907839 6.5856 8.534399 7.32992 8.47168 L 27.52 7.2896 C 28.2048 7.227839 28.51424 7.66304 28.51424 8.471359 L 28.51424 26.886398 C 28.51424 27.696001 28.389441 28.3808 27.271679 28.442562 L 7.95104 29.562561 C 6.83328 29.624319 6.33728 29.252161 6.33728 28.256001 Z M 25.40896 10.711359 C 25.532801 11.27136 25.40896 11.83136 24.848961 11.895361 L 23.917759 12.08 L 23.917759 25.767361 C 23.109121 26.20256 22.364799 26.4512 21.74272 26.4512 C 20.74848 26.4512 20.50016 26.139839 19.75552 25.207361 L 13.66592 15.62656 L 13.66592 24.896 L 15.59232 25.332161 C 15.59232 25.332161 15.59232 26.45216 14.03808 26.45216 L 9.75328 26.700802 C 9.62848 26.4512 9.75328 25.829441 10.18752 25.705601 L 11.306561 25.395201 L 11.306561 13.1392 L 9.7536 13.013439 C 9.6288 12.45344 9.939199 11.6448 10.8096 11.582081 L 15.40704 11.272642 L 21.74304 20.97728 L 21.74304 12.39168 L 20.128 12.206079 C 20.003199 11.520319 20.50016 11.022079 21.12096 10.961279 L 25.40896 10.711679 Z"/>
</svg>
