<?xml version="1.0" encoding="UTF-8"?>
<!-- Generated by Pixelmator Pro 3.4.3 -->
<svg width="21" height="32" viewBox="0 0 21 32" xmlns="http://www.w3.org/2000/svg">
    <path id="path0fill" fill="#0acf83" stroke="none" d="M 5.25105 32 C 8.14847 32 10.5 29.610668 10.5 26.666668 L 10.5 21.333334 L 5.25105 21.333334 C 2.353629 21.333334 0.0021 23.722668 0.0021 26.666668 C 0.0021 29.610668 2.353629 32 5.25105 32 Z"/>
    <path id="path1fill" fill="#a259ff" stroke="none" d="M 0.0021 16 C 0.0021 13.056 2.353629 10.666668 5.25105 10.666668 L 10.5 10.666668 L 10.5 21.333334 L 5.25105 21.333334 C 2.353629 21.333334 0.0021 18.944 0.0021 16 Z"/>
    <path id="path1fill1" fill="#f24e1e" stroke="none" d="M 0.0021 5.333334 C 0.0021 2.389334 2.353629 0 5.25105 0 L 10.5 0 L 10.5 10.666668 L 5.25105 10.666668 C 2.353629 10.666668 0.0021 8.277332 0.0021 5.333334 Z"/>
    <path id="path2fill" fill="#ff7262" stroke="none" d="M 10.5 0 L 15.74895 0 C 18.646372 0 20.9979 2.389334 20.9979 5.333334 C 20.9979 8.277332 18.646372 10.666668 15.74895 10.666668 L 10.5 10.666668 L 10.5 0 Z"/>
    <path id="path3fill" fill="#1abcfe" stroke="none" d="M 20.9979 16 C 20.9979 18.944 18.646372 21.333334 15.74895 21.333334 C 12.85153 21.333334 10.5 18.944 10.5 16 C 10.5 13.056 12.85153 10.666668 15.74895 10.666668 C 18.646372 10.666668 20.9979 13.056 20.9979 16 Z"/>
</svg>
